HIERARCHY
ROOT Hips
{
  OFFSET 0 0 0
  CHANNELS 6 Xposition Yposition Zposition Zrotation Yrotation Xrotation
  JOINT LeftThigh
  {
    OFFSET 8.409438 0 -5.917753
    CHANNELS 3 Zrotation Yrotation Xrotation
    JOINT LeftLeg
    {
      OFFSET 0 0 -42.358652
      CHANNELS 3 Zrotation Yrotation Xrotation
      JOINT LeftFoot
      {
        OFFSET 0 0 -39.357303
        CHANNELS 3 Zrotation Yrotation Xrotation
      }
    }
  }
  JOINT RightThigh
  {
    OFFSET -8.409438 0 -5.917753
    CHANNELS 3 Zrotation Yrotation Xrotation
    JOINT RightLeg
    {
      OFFSET 0 0 -42.358652
      CHANNELS 3 Zrotation Yrotation Xrotation
      JOINT RightFoot
      {
        OFFSET 0 0 -39.357303
        CHANNELS 3 Zrotation Yrotation Xrotation
      }
    }
  }
  JOINT SpineLow
  {
    OFFSET 0 0 4.719101
    CHANNELS 3 Zrotation Yrotation Xrotation
    JOINT SpineMid
    {
      OFFSET 0 0 12.899191
      CHANNELS 3 Zrotation Yrotation Xrotation
      JOINT Chest
      {
        OFFSET 0 0 12.899191
        CHANNELS 3 Zrotation Yrotation Xrotation
        JOINT LeftShoulder
        {
          OFFSET 7.550562 1.41573 9.438202
          CHANNELS 3 Zrotation Yrotation Xrotation
          JOINT LeftArm
          {
            OFFSET 9.155056 0 4.247191
            CHANNELS 3 Zrotation Yrotation Xrotation
            JOINT LeftForearm
            {
              OFFSET 0 0 25.771955
              CHANNELS 3 Zrotation Yrotation Xrotation
              JOINT LeftHand
              {
                OFFSET 0 0 25.197169
                CHANNELS 3 Zrotation Yrotation Xrotation
              }
            }
          }
        }
        JOINT RightShoulder
        {
          OFFSET -7.550562 1.41573 9.438202
          CHANNELS 3 Zrotation Yrotation Xrotation
          JOINT RightArm
          {
            OFFSET -9.155056 0 4.247191
            CHANNELS 3 Zrotation Yrotation Xrotation
            JOINT RightForearm
            {
              OFFSET 0 0 -25.771955
              CHANNELS 3 Zrotation Yrotation Xrotation
              JOINT RightHand
              {
                OFFSET 0 0 -25.197169
                CHANNELS 3 Zrotation Yrotation Xrotation
              }
            }
          }
        }
        JOINT Neck
        {
          OFFSET 0 0 15.101124
          CHANNELS 3 Zrotation Yrotation Xrotation
          JOINT Head
          {
            OFFSET 0 0 11.325843
            CHANNELS 3 Zrotation Yrotation Xrotation
            End Site
            {
              OFFSET 0 0 14.157303
            }
          }
        }
      }
    }
  }
}
MOTION
Frames: 7
Frame Time: 0.0
0.0  93.25843  0.0  -11.438471  -67.497637  -81.182773  21.989521  -13.583146  3.806455  20.628922  -5.068218  17.548214  9.62573  0.578935  3.216415  23.5971  -9.105904  -19.369567  5.557854  10.769029  9.503497  4.753035  0.277452  0.194705  3.153555  -0.205023  -1.035152  8.626998  -0.424399  -2.850697  8.626999  -0.424399  -2.850697  -14.62642  20.1684  6.739897  173.09906  28.927551  -157.311385  16.428039  -36.794503  89.812357  99.335764  -0.040553  2.383112  22.853073  -18.169642  23.194301  126.92029  42.863178  48.021127  -7.177448  -22.617598  -91.187286  65.494554  -3.749441  16.176185  15.748075  3.253525  17.806058  11.724955  2.904343  13.277681  
0.0  93.25843  0.0  -12.714223  -69.087805  -80.111983  21.399275  -13.624696  3.467453  20.921265  -5.373584  18.715808  9.868362  0.701387  3.200893  24.45587  -9.456469  -19.131409  5.796331  10.588755  9.009035  4.717782  0.319196  0.146676  3.056103  -0.10166  -0.852371  8.35596  -0.169752  -2.338432  8.35596  -0.169752  -2.338432  -14.788949  19.468364  6.065962  176.058966  28.484894  -157.155458  15.072881  -35.248877  91.444086  98.697731  1.653468  0.564173  22.376678  -17.675805  22.115084  125.282727  42.86718  47.6055  -4.037833  -22.803163  -95.885903  66.714504  -3.878449  14.962524  16.554275  3.156761  16.954651  12.336338  2.832045  12.638357  
0.0  93.25843  0.0  -13.747308  -70.090217  -79.202818  21.43932  -13.940238  3.204939  20.518098  -5.195048  19.360436  10.264018  0.780406  3.30146  25.347447  -9.650585  -18.931918  5.926927  10.505533  8.688577  4.702055  0.282442  0.103065  2.820239  0.056524  -0.765163  7.706194  0.243376  -2.08165  7.706195  0.243376  -2.081651  -14.130242  18.52951  5.959054  178.107416  28.389649  -156.851996  13.944997  -33.796036  89.608622  95.323324  1.997334  -4.949139  22.253316  -17.789554  21.465608  123.036351  43.091455  47.196684  -1.852658  -21.339761  -99.617701  67.301668  -3.252662  12.490333  17.525857  2.749053  16.318119  13.079657  2.53459  12.169383  
0.0  93.25843  0.0  -14.084163  -70.501649  -78.962284  22.042953  -14.282342  3.175897  19.718011  -4.728976  19.46216  10.774756  0.807108  3.486802  25.889271  -9.70259  -18.611846  6.083683  10.507352  8.489472  3.371333  0.227387  -0.219084  2.681727  0.292484  -0.682738  7.321694  0.873914  -1.831251  7.321694  0.873914  -1.831252  -14.381996  17.353176  6.05116  179.599287  28.742743  -156.263116  9.946164  -29.039515  86.455647  95.039607  0.193619  -9.28052  21.147949  -18.340879  20.734101  120.57121  43.299919  46.932317  -0.67967  -20.07607  -102.588203  68.772378  -1.623766  9.263458  17.813597  2.118848  15.711137  13.314781  2.05104  11.732183  
0.0  93.25843  0.0  -13.188295  -70.08465  -79.923091  22.716406  -14.461363  3.142309  18.975991  -4.350948  19.438755  11.073254  0.788166  3.587738  25.595492  -9.551406  -18.115404  6.263633  10.530551  8.354787  3.258567  0.253216  -0.232235  2.623699  0.530912  -0.565467  7.159897  1.510443  -1.486238  7.159897  1.510443  -1.486238  -15.685389  16.380156  6.191224  -179.13558  29.465157  -155.385283  4.473599  -21.518314  83.270676  98.174093  -1.235115  -11.923498  18.814129  -18.67734  20.093564  118.264014  43.44636  46.787236  -0.116697  -18.634437  -105.204997  70.023852  0.599799  6.375515  17.307561  1.63876  15.253535  12.948573  1.664145  11.403909  
0.0  93.25843  0.0  -11.066955  -68.69969  -81.921413  23.188458  -14.387076  2.886541  18.569618  -4.183342  19.452265  11.014066  0.895175  3.621269  24.377464  -9.02718  -17.627202  6.36457  10.512777  8.297806  2.840884  0.283343  -0.286508  2.519848  0.679665  -0.518602  6.87457  1.909389  -1.345344  6.87457  1.909389  -1.345344  -17.258929  16.276076  6.64045  -177.568058  30.658072  -154.172789  -2.079326  -14.270561  78.302944  103.017803  -2.041063  -11.732712  15.663745  -18.459457  20.378124  116.386869  43.31208  46.706896  2.346521  -17.354102  -107.87311  71.69613  3.720241  6.654389  16.451205  1.498457  15.433771  12.309276  1.542059  11.544351  
0.0  93.25843  0.0  -8.762295  -66.472799  -83.993681  23.632957  -14.254815  2.429918  18.262543  -4.121538  19.395612  10.746378  0.937644  3.628177  22.510549  -8.250599  -17.076566  6.588118  10.395764  8.26348  2.677578  0.366656  -0.310101  2.145975  0.663493  -0.607133  5.850151  1.865674  -1.599572  5.850151  1.865674  -1.599572  -17.764762  17.460739  7.355249  -175.657723  32.265031  -152.714374  -6.552945  -10.317705  71.739184  106.282264  -1.414442  -10.249704  13.27878  -17.430649  22.066848  114.942351  42.974105  46.777303  1.739955  -16.766552  -109.467747  72.224796  5.050747  5.579686  16.160933  1.847038  16.423574  12.080473  1.822921  12.27807  
